<svg width="40" height="40" viewBox="0 0 40 40" fill="none" xmlns="http://www.w3.org/2000/svg">
<path d="M7.6061 28.2214C7.83506 29.5181 8.3493 30.4436 9.14882 30.9981C9.94833 31.5526 11.0066 31.7153 12.3237 31.4864L14.2231 31.1593V28.2707L12.0652 28.6386C11.0976 28.8059 10.5267 28.4023 10.3526 27.4279L7.95962 13.3548C7.86939 12.8533 7.92811 12.4592 8.13578 12.1724C8.34346 11.8856 8.68307 11.7021 9.15464 11.6218L24.3093 8.96054C24.7777 8.8735 25.1577 8.92894 25.4493 9.12687C25.7408 9.32478 25.9317 9.6729 26.022 10.1712L26.5831 13.3161H29.4717L28.7685 9.37774C28.5363 8.07426 28.0196 7.14449 27.2183 6.58844C26.4169 6.03238 25.3611 5.87042 24.0509 6.10254L8.42235 8.86032C7.10528 9.08927 6.16362 9.60431 5.59735 10.4054C5.03109 11.2065 4.86742 12.2554 5.10635 13.5521L7.6061 28.2214ZM16.0249 34.3781H31.9133C33.2435 34.3781 34.2572 34.033 34.9542 33.3428C35.6514 32.6525 36 31.6491 36 30.3324V16.6817C36 15.3583 35.6514 14.3532 34.9542 13.6663C34.2572 12.9795 33.2435 12.6361 31.9133 12.6361H16.0249C14.6879 12.6361 13.6726 12.9795 12.9789 13.6663C12.2853 14.3532 11.9385 15.3583 11.9385 16.6817V30.3324C11.9385 31.6559 12.2853 32.661 12.9789 33.3479C13.6726 34.0347 14.6879 34.3781 16.0249 34.3781ZM16.2642 31.529C15.7859 31.529 15.4219 31.4057 15.1723 31.1593C14.9226 30.9128 14.7978 30.5371 14.7978 30.0319V28.9529V16.9823C14.7978 16.474 14.9226 16.0974 15.1723 15.8525C15.4219 15.6077 15.7859 15.4853 16.2642 15.4853H31.674C32.1492 15.4853 32.5141 15.6077 32.7687 15.8525C33.0233 16.0974 33.1506 16.474 33.1506 16.9823V28.2511V30.0319C33.1506 30.5371 33.0233 30.9128 32.7687 31.1593C32.5141 31.4057 32.1492 31.529 31.674 31.529H16.2642Z" fill="#4995F4"/>
<path d="M27.7333 21.9007L21.6057 28.4269L18.4333 25.0007L14.7978 28.9529V30.0319C14.7978 30.5371 14.9226 30.9128 15.1723 31.1593C15.4219 31.4057 15.7859 31.529 16.2642 31.529H31.674C32.1492 31.529 32.5141 31.4057 32.7687 31.1593C33.0233 30.9128 33.1506 30.5371 33.1506 30.0319V28.2511L27.7333 21.9007Z" fill="#4995F4"/>
</svg>
