<svg width="40" height="40" viewBox="0 0 40 40" fill="none" xmlns="http://www.w3.org/2000/svg">
<path d="M14.6726 32.6249H31.9372C33.0039 32.6249 33.8137 32.3556 34.3665 31.817C34.9191 31.2783 35.1955 30.4756 35.1955 29.4088V28.5239L29.3391 23.0369C29.0828 22.7989 28.8071 22.6204 28.5117 22.5012C28.2164 22.3821 27.9081 22.3225 27.5867 22.3225C27.255 22.3225 26.9479 22.3794 26.6652 22.4931C26.3825 22.6069 26.1077 22.7827 25.8407 23.0207L20.6989 27.5505L18.675 25.7149C18.4228 25.4915 18.17 25.3257 17.9164 25.2175C17.6628 25.1093 17.3971 25.0552 17.1193 25.0552C16.8594 25.0552 16.6098 25.1084 16.3705 25.2147C16.1313 25.321 15.8874 25.4823 15.639 25.6987L11.4141 29.4139C11.4141 30.4844 11.6905 31.2872 12.2432 31.8223C12.796 32.3574 13.6058 32.6249 14.6726 32.6249ZM19.8383 23.2778C20.5801 23.2778 21.2148 23.0114 21.7422 22.4784C22.2697 21.9455 22.5335 21.3027 22.5335 20.5501C22.5335 19.8191 22.2697 19.1862 21.7422 18.6515C21.2148 18.1168 20.5801 17.8494 19.8383 17.8494C19.0857 17.8494 18.4466 18.1168 17.921 18.6515C17.3954 19.1862 17.1325 19.8191 17.1325 20.5501C17.1325 21.3027 17.3954 21.9455 17.921 22.4784C18.4466 23.0114 19.0857 23.2778 19.8383 23.2778ZM6.19298 26.3539C6.41198 27.5856 6.89061 28.4575 7.62885 28.9695C8.36709 29.4814 9.36275 29.6279 10.6158 29.4088L11.951 29.1791V27.41L10.3435 27.6879C8.95532 27.9303 8.13653 27.352 7.88709 25.9529L5.8287 14.2836C5.70212 13.5896 5.78792 13.0331 6.0861 12.6139C6.38429 12.1947 6.86972 11.9254 7.54239 11.8059L24.4913 8.8297C25.1528 8.70685 25.6969 8.78997 26.1235 9.07906C26.5501 9.36812 26.8249 9.86331 26.9478 10.5646L27.6063 14.2247H29.3699L28.6419 10.1638C28.4228 8.9286 27.9424 8.05411 27.2006 7.54035C26.4589 7.02655 25.4669 6.87917 24.2245 7.0982L7.20533 10.1012C5.95228 10.3239 5.06538 10.8035 4.54463 11.5398C4.02389 12.2762 3.87657 13.2603 4.10268 14.4921L6.19298 26.3539ZM14.6472 33.2369H32.1699C33.4376 33.2369 34.3929 32.9171 35.0357 32.2776C35.6786 31.638 36 30.6953 36 29.4493V17.4094C36 16.1564 35.6786 15.2118 35.0357 14.5758C34.3929 13.9399 33.4376 13.6219 32.1699 13.6219H14.6472C13.3763 13.6219 12.4203 13.9389 11.779 14.5731C11.1378 15.2072 10.8172 16.1527 10.8172 17.4094V29.4493C10.8172 30.7098 11.1378 31.6562 11.779 32.2885C12.4203 32.9207 13.3763 33.2369 14.6472 33.2369ZM14.6797 31.5003C13.9925 31.5003 13.4691 31.3195 13.1095 30.958C12.7499 30.5966 12.5701 30.0635 12.5701 29.3588V17.5056C12.5701 16.7972 12.7499 16.2631 13.1095 15.9035C13.4691 15.5439 13.9925 15.3641 14.6797 15.3641H32.1374C32.8135 15.3641 33.3368 15.5439 33.7074 15.9035C34.0779 16.2631 34.2632 16.7972 34.2632 17.5056V29.3588C34.2632 30.0635 34.0779 30.5966 33.7074 30.958C33.3368 31.3195 32.8135 31.5003 32.1374 31.5003H14.6797Z" fill="#4995F4"/>
</svg>
