<svg width="16" height="16" viewBox="0 0 16 16" fill="none" xmlns="http://www.w3.org/2000/svg">
<path d="M15.5 12.1454L11.3459 8.29065C11.1767 8.15432 11.0061 8.0461 10.8343 7.96601C10.6624 7.88591 10.479 7.84587 10.2839 7.84587C10.0849 7.84587 9.90114 7.88107 9.73253 7.95149C9.56391 8.02191 9.39725 8.13205 9.23255 8.28191L6.12777 11.0563L4.84093 9.87312C4.69884 9.74586 4.55188 9.64751 4.40006 9.57806C4.24824 9.50862 4.08576 9.4739 3.91264 9.4739C3.75175 9.4739 3.60041 9.50781 3.45862 9.57562C3.31682 9.64344 3.17486 9.7397 3.03276 9.8644L0.455078 12.2375C0.499619 12.8132 0.637704 13.2374 0.869331 13.5101C1.10097 13.7827 2.51029 15 3 15H13C13.5899 15 14.8032 13.7618 15.0803 13.4471C15.3576 13.1324 15.4975 12.6985 15.5 12.1454ZM5.0327 8.22689C5.47459 8.22689 5.85252 8.0691 6.16649 7.75353C6.48045 7.43796 6.63743 7.05793 6.63743 6.61345C6.63743 6.17417 6.48045 5.79544 6.16649 5.47726C5.85252 5.15909 5.47459 5 5.0327 5C4.59083 5 4.21145 5.15909 3.89458 5.47726C3.5777 5.79544 3.41927 6.17417 3.41927 6.61345C3.41927 7.05793 3.5777 7.43796 3.89458 7.75353C4.21145 8.0691 4.59083 8.22689 5.0327 8.22689Z" fill="#B264F0"/>
<path d="M15.0112 1.00001C14.5952 0.591607 14.096 0.322837 13.5136 0.193702C12.9311 0.0645675 12.2392 0 11.4376 0H4.51212C3.74067 0 3.06458 0.0653976 2.48384 0.196192C1.90309 0.326986 1.4064 0.596616 0.993765 1.00508C0.585309 1.41771 0.317567 1.91063 0.19054 2.48386C0.0635134 3.05708 0 3.73105 0 4.50576V11.3872C0 12.1963 0.0626837 12.891 0.188051 13.4714C0.313419 14.0517 0.580306 14.5445 0.988713 14.9495C1.40134 15.3579 1.89971 15.6267 2.48384 15.7558C3.06795 15.885 3.76079 15.9496 4.56236 15.9496H11.4376C12.2392 15.9496 12.932 15.885 13.5161 15.7558C14.1002 15.6267 14.5985 15.3579 15.0112 14.9495C15.4196 14.5411 15.6865 14.0475 15.8119 13.4689C15.9373 12.8902 16 12.1963 16 11.3872V4.56234C16 3.75323 15.9373 3.0585 15.8119 2.47815C15.6865 1.8978 15.4196 1.40509 15.0112 1.00001ZM14.9026 4.32336V11.6262C14.9026 12.1518 14.8531 12.635 14.7542 13.0756C14.6553 13.5163 14.4704 13.872 14.1996 14.1428C13.9279 14.4137 13.57 14.5996 13.126 14.7006C12.682 14.8017 12.1988 14.8522 11.6766 14.8522H4.32336C3.80105 14.8522 3.31685 14.8017 2.87077 14.7006C2.42469 14.5996 2.06624 14.4137 1.79541 14.1428C1.52457 13.872 1.34052 13.5163 1.24326 13.0756C1.14601 12.635 1.09738 12.1518 1.09738 11.6262V4.37994C1.09738 3.82997 1.14601 3.33048 1.24326 2.88145C1.34052 2.43242 1.52288 2.07248 1.79034 1.80164C2.06117 1.5308 2.42382 1.34571 2.87829 1.24637C3.33275 1.14703 3.8333 1.09737 4.37994 1.09737H11.6766C12.1988 1.09737 12.682 1.14788 13.126 1.24891C13.57 1.34994 13.9279 1.53587 14.1996 1.80671C14.4704 2.07755 14.6553 2.43329 14.7542 2.87393C14.8531 3.31457 14.9026 3.79771 14.9026 4.32336Z" fill="#B264F0"/>
</svg>
