<svg width="16" height="16" viewBox="0 0 16 16" fill="none" xmlns="http://www.w3.org/2000/svg">
<rect x="1.67" y="3.67" width="12.66" height="9.66" rx="1.33" stroke="#32C7BA" stroke-width="1.34"/>
<path d="M6.70453 10.25C6.70453 9.69771 7.15224 9.25 7.70453 9.25H8.29544C8.84772 9.25 9.29544 9.69772 9.29544 10.25V10.8409C9.29544 11.3932 8.84772 11.8409 8.29544 11.8409H7.70453C7.15224 11.8409 6.70453 11.3932 6.70453 10.8409V10.25Z" fill="#32C7BA"/>
<path d="M10.1591 10.25C10.1591 9.69771 10.6068 9.25 11.1591 9.25H11.75C12.3023 9.25 12.75 9.69772 12.75 10.25V10.8409C12.75 11.3932 12.3023 11.8409 11.75 11.8409H11.1591C10.6068 11.8409 10.1591 11.3932 10.1591 10.8409V10.25Z" fill="#32C7BA"/>
<path d="M3.25 10.25C3.25 9.69771 3.69772 9.25 4.25 9.25H4.84091C5.39319 9.25 5.84091 9.69772 5.84091 10.25V10.8409C5.84091 11.3932 5.39319 11.8409 4.84091 11.8409H4.25C3.69771 11.8409 3.25 11.3932 3.25 10.8409V10.25Z" fill="#32C7BA"/>
</svg>
