<svg width="16" height="16" viewBox="0 0 16 16" fill="none" xmlns="http://www.w3.org/2000/svg">
<path d="M2.01485 14.375H13.9851C14.6577 14.375 15.1617 14.206 15.4971 13.8681C15.8324 13.5302 16 13.0324 16 12.3747V4.00032C16 3.34259 15.8324 2.84477 15.4971 2.50686C15.1617 2.16895 14.6577 2 13.9851 2H2.01485C1.3487 2 0.846358 2.16766 0.507815 2.50299C0.169271 2.83832 0 3.33743 0 4.00032V12.3747C0 13.0376 0.169271 13.5367 0.507815 13.872C0.846358 14.2073 1.3487 14.375 2.01485 14.375ZM2.03229 13.5247C1.64603 13.5247 1.35165 13.4251 1.14917 13.2258C0.946685 13.0265 0.845443 12.7289 0.845443 12.333V4.04198C0.845443 3.64929 0.946685 3.35251 1.14917 3.15163C1.35165 2.95075 1.64603 2.85031 2.03229 2.85031H13.9676C14.3462 2.85031 14.6386 2.95075 14.8449 3.15163C15.0513 3.35251 15.1545 3.64929 15.1545 4.04198V12.333C15.1545 12.7289 15.0513 13.0265 14.8449 13.2258C14.6386 13.4251 14.3462 13.5247 13.9676 13.5247H2.03229Z" fill="#BA6BEB"/>
<path d="M6.5 11C6.5 10.4477 6.94772 10 7.5 10H8.5C9.05228 10 9.5 10.4477 9.5 11V12C9.5 12.5523 9.05228 13 8.5 13H7.5C6.94772 13 6.5 12.5523 6.5 12V11Z" fill="#BA6BEB"/>
<path d="M10.5 11C10.5 10.4477 10.9477 10 11.5 10H12.5C13.0523 10 13.5 10.4477 13.5 11V12C13.5 12.5523 13.0523 13 12.5 13H11.5C10.9477 13 10.5 12.5523 10.5 12V11Z" fill="#BA6BEB"/>
<path d="M2.5 11C2.5 10.4477 2.94772 10 3.5 10H4.5C5.05228 10 5.5 10.4477 5.5 11V12C5.5 12.5523 5.05228 13 4.5 13H3.5C2.94772 13 2.5 12.5523 2.5 12V11Z" fill="#BA6BEB"/>
</svg>
