<svg width="16" height="16" viewBox="0 0 16 16" fill="none" xmlns="http://www.w3.org/2000/svg">
<path d="M5.48124 13.8362H13.8763C14.4234 13.8362 14.8401 13.6974 15.1266 13.4199C15.4128 13.1424 15.556 12.7302 15.556 12.1831V11.7847L12.642 9.03394C12.5201 8.91908 12.3866 8.8336 12.2415 8.77748C12.0964 8.72137 11.9481 8.69331 11.7968 8.69331C11.6374 8.69331 11.488 8.72003 11.3487 8.77348C11.2094 8.82692 11.0761 8.91106 10.9488 9.02592L8.4162 11.2713L7.40708 10.3608C7.28335 10.2522 7.15809 10.1719 7.0313 10.1198C6.90451 10.0677 6.77477 10.0417 6.64208 10.0417C6.51917 10.0417 6.3981 10.0675 6.27886 10.1191C6.15962 10.1708 6.03858 10.2487 5.91576 10.3528L3.80157 12.1884C3.80157 12.7364 3.94475 13.148 4.23112 13.4233C4.5175 13.6986 4.93421 13.8362 5.48124 13.8362ZM7.96272 9.16985C8.32764 9.16985 8.64005 9.03857 8.89994 8.776C9.15983 8.51343 9.28977 8.19702 9.28977 7.82676C9.28977 7.46718 9.15983 7.15589 8.89994 6.89288C8.64005 6.62987 8.32764 6.49836 7.96272 6.49836C7.59247 6.49836 7.27763 6.62987 7.01819 6.89288C6.75877 7.15589 6.62905 7.46718 6.62905 7.82676C6.62905 8.19702 6.75877 8.51343 7.01819 8.776C7.27763 9.03857 7.59247 9.16985 7.96272 9.16985ZM1.08301 10.6181C1.19597 11.2514 1.44124 11.6988 1.81885 11.9603C2.19644 12.2218 2.70854 12.2961 3.35515 12.1831L4.13559 12.05V11.0256L3.19532 11.1868C2.55649 11.2973 2.17961 11.0305 2.06468 10.3863L1.0553 4.66258C0.997376 4.34183 1.03724 4.08434 1.17488 3.89013C1.31254 3.69592 1.53509 3.57208 1.84251 3.51859L10.1893 2.05402C10.494 1.997 10.7443 2.03553 10.9404 2.16962C11.1364 2.30369 11.2629 2.53199 11.3199 2.85453L11.647 4.67263H12.6699L12.3016 2.62278C12.1887 1.98595 11.9423 1.53654 11.5624 1.27457C11.1826 1.01259 10.6721 0.938087 10.0308 1.05106L1.65068 2.53028C1.00408 2.64414 0.546911 2.88964 0.279174 3.26679C0.0114546 3.64394 -0.0637137 4.14916 0.0536691 4.78246L1.08301 10.6181ZM5.45475 14.1682H14.0306C14.6835 14.1682 15.175 14.0049 15.5049 13.6785C15.835 13.352 16 12.8677 16 12.2255V6.3018C16 5.6552 15.835 5.16978 15.5049 4.84553C15.175 4.52129 14.6835 4.35917 14.0306 4.35917H5.45475C4.79838 4.35917 4.30607 4.52106 3.97784 4.84485C3.64961 5.16866 3.48549 5.6543 3.48549 6.3018V12.2255C3.48549 12.8739 3.64961 13.3598 3.97784 13.6831C4.30607 14.0065 4.79838 14.1682 5.45475 14.1682ZM5.47078 13.1599C5.15711 13.1599 4.91719 13.0766 4.75103 12.91C4.58487 12.7434 4.50179 12.497 4.50179 12.1709V6.35776C4.50179 6.03077 4.58487 5.7842 4.75103 5.61803C4.91719 5.45187 5.15711 5.36879 5.47078 5.36879H14.0145C14.3256 5.36879 14.5661 5.45187 14.7363 5.61803C14.9065 5.7842 14.9916 6.03077 14.9916 6.35776V12.1709C14.9916 12.497 14.9065 12.7434 14.7363 12.91C14.5661 13.0766 14.3256 13.1599 14.0145 13.1599H5.47078Z" fill="#4995F4"/>
</svg>
