<svg width="16" height="16" viewBox="0 0 16 16" fill="none" xmlns="http://www.w3.org/2000/svg">
<path d="M1.76102 11.7523C1.8718 12.3797 2.12063 12.8276 2.50749 13.0959C2.89435 13.3642 3.40644 13.4429 4.04374 13.3321L4.96278 13.1738V11.7761L3.91866 11.9541C3.45045 12.0351 3.17423 11.8398 3.08998 11.3683L1.93207 4.55879C1.88841 4.31613 1.91683 4.12541 2.01731 3.98663C2.1178 3.84786 2.28213 3.75906 2.51031 3.72022L9.84323 2.43252C10.0699 2.3904 10.2537 2.41723 10.3948 2.513C10.5359 2.60876 10.6283 2.77721 10.6719 3.01833L10.9434 4.54006H12.3411L12.0009 2.63439C11.8886 2.00367 11.6385 1.55379 11.2508 1.28473C10.863 1.01567 10.3522 0.937299 9.71816 1.04962L2.15598 2.38402C1.51869 2.49481 1.06304 2.74402 0.78904 3.13165C0.515042 3.51929 0.435848 4.02681 0.551458 4.65423L1.76102 11.7523ZM5.83465 14.7314H13.5226C14.1662 14.7314 14.6567 14.5644 14.994 14.2304C15.3313 13.8964 15.5 13.4108 15.5 12.7738V6.16859C15.5 5.52823 15.3313 5.04188 14.994 4.70952C14.6567 4.37718 14.1662 4.21101 13.5226 4.21101H5.83465C5.1877 4.21101 4.69641 4.37718 4.36076 4.70952C4.02513 5.04188 3.85732 5.52823 3.85732 6.16859V12.7738C3.85732 13.4141 4.02513 13.9005 4.36076 14.2328C4.69641 14.5652 5.1877 14.7314 5.83465 14.7314ZM5.95043 13.3527C5.71896 13.3527 5.54284 13.2931 5.42206 13.1738C5.30128 13.0546 5.24089 12.8728 5.24089 12.6284V12.1062V6.31401C5.24089 6.06806 5.30128 5.88584 5.42206 5.76736C5.54284 5.64888 5.71896 5.58964 5.95043 5.58964H13.4068C13.6367 5.58964 13.8133 5.64888 13.9365 5.76736C14.0597 5.88584 14.1212 6.06806 14.1212 6.31401V11.7667V12.6284C14.1212 12.8728 14.0597 13.0546 13.9365 13.1738C13.8133 13.2931 13.6367 13.3527 13.4068 13.3527H5.95043Z" fill="#4995F4"/>
<path d="M11.5 8.69386L8.53502 11.8517L7 10.1939L5.24089 12.1062V12.6284C5.24089 12.8728 5.30128 13.0546 5.42206 13.1738C5.54284 13.2931 5.71896 13.3527 5.95043 13.3527H13.4068C13.6367 13.3527 13.8133 13.2931 13.9365 13.1738C14.0597 13.0546 14.1212 12.8728 14.1212 12.6284V11.7667L11.5 8.69386Z" fill="#4995F4"/>
</svg>
