<svg width="12" height="12" viewBox="0 0 12 12" fill="none" xmlns="http://www.w3.org/2000/svg">
<path d="M9.20833 6C8.97627 6 8.75371 5.90781 8.58962 5.74372C8.42552 5.57962 8.33333 5.35706 8.33333 5.125C8.33333 4.89294 8.42552 4.67038 8.58962 4.50628C8.75371 4.34219 8.97627 4.25 9.20833 4.25C9.4404 4.25 9.66296 4.34219 9.82705 4.50628C9.99115 4.67038 10.0833 4.89294 10.0833 5.125C10.0833 5.35706 9.99115 5.57962 9.82705 5.74372C9.66296 5.90781 9.4404 6 9.20833 6ZM7.45833 3.66667C7.22627 3.66667 7.00371 3.57448 6.83961 3.41039C6.67552 3.24629 6.58333 3.02373 6.58333 2.79167C6.58333 2.5596 6.67552 2.33704 6.83961 2.17295C7.00371 2.00885 7.22627 1.91667 7.45833 1.91667C7.6904 1.91667 7.91296 2.00885 8.07705 2.17295C8.24115 2.33704 8.33333 2.5596 8.33333 2.79167C8.33333 3.02373 8.24115 3.24629 8.07705 3.41039C7.91296 3.57448 7.6904 3.66667 7.45833 3.66667ZM4.54167 3.66667C4.3096 3.66667 4.08704 3.57448 3.92295 3.41039C3.75885 3.24629 3.66667 3.02373 3.66667 2.79167C3.66667 2.5596 3.75885 2.33704 3.92295 2.17295C4.08704 2.00885 4.3096 1.91667 4.54167 1.91667C4.77373 1.91667 4.99629 2.00885 5.16039 2.17295C5.32448 2.33704 5.41667 2.5596 5.41667 2.79167C5.41667 3.02373 5.32448 3.24629 5.16039 3.41039C4.99629 3.57448 4.77373 3.66667 4.54167 3.66667ZM2.79167 6C2.5596 6 2.33704 5.90781 2.17295 5.74372C2.00885 5.57962 1.91667 5.35706 1.91667 5.125C1.91667 4.89294 2.00885 4.67038 2.17295 4.50628C2.33704 4.34219 2.5596 4.25 2.79167 4.25C3.02373 4.25 3.24629 4.34219 3.41039 4.50628C3.57448 4.67038 3.66667 4.89294 3.66667 5.125C3.66667 5.35706 3.57448 5.57962 3.41039 5.74372C3.24629 5.90781 3.02373 6 2.79167 6ZM6 0.75C4.60761 0.75 3.27226 1.30312 2.28769 2.28769C1.30312 3.27226 0.75 4.60761 0.75 6C0.75 7.39239 1.30312 8.72774 2.28769 9.71231C3.27226 10.6969 4.60761 11.25 6 11.25C6.23206 11.25 6.45462 11.1578 6.61872 10.9937C6.78281 10.8296 6.875 10.6071 6.875 10.375C6.875 10.1475 6.7875 9.94333 6.6475 9.79167C6.51333 9.63417 6.42583 9.43 6.42583 9.20833C6.42583 8.97627 6.51802 8.75371 6.68211 8.58962C6.84621 8.42552 7.06877 8.33333 7.30083 8.33333H8.33333C9.10688 8.33333 9.84875 8.02604 10.3957 7.47906C10.9427 6.93208 11.25 6.19021 11.25 5.41667C11.25 2.83833 8.89917 0.75 6 0.75Z" fill="#F06292"/>
</svg>
