<svg width="16" height="16" viewBox="0 0 16 16" fill="none" xmlns="http://www.w3.org/2000/svg">
<path d="M15.487 12.2076L11.3329 8.35292C11.1637 8.21659 10.9931 8.10838 10.8213 8.02828C10.6494 7.94819 10.466 7.90814 10.2709 7.90814C10.0719 7.90814 9.88813 7.94335 9.71952 8.01377C9.5509 8.08418 9.38424 8.19432 9.21954 8.34418L6.11476 11.1185L4.82792 9.93539C4.68582 9.80813 4.53887 9.70978 4.38704 9.64033C4.23522 9.57089 4.07275 9.53617 3.89962 9.53617C3.73874 9.53617 3.5874 9.57008 3.4456 9.6379C3.30381 9.70571 3.16185 9.80197 3.01975 9.92667L0.442067 12.2998C0.486608 12.8755 0.624692 13.2996 0.85632 13.5723C1.08796 13.845 1.44863 13.9814 1.93834 13.9814H13.7668C14.3566 13.9814 14.7902 13.824 15.0673 13.5094C15.3446 13.1947 15.4845 12.7608 15.487 12.2076ZM5.01969 8.28916C5.46158 8.28916 5.83951 8.13138 6.15348 7.81581C6.46744 7.50023 6.62442 7.1202 6.62442 6.67572C6.62442 6.23644 6.46744 5.85771 6.15348 5.53953C5.83951 5.22136 5.46158 5.06227 5.01969 5.06227C4.57782 5.06227 4.19844 5.22136 3.88157 5.53953C3.56469 5.85771 3.40626 6.23644 3.40626 6.67572C3.40626 7.1202 3.56469 7.50023 3.88157 7.81581C4.19844 8.13138 4.57782 8.28916 5.01969 8.28916ZM2.01485 14.375H13.9851C14.6577 14.375 15.1617 14.206 15.4971 13.8681C15.8324 13.5302 16 13.0324 16 12.3747V4.00032C16 3.34259 15.8324 2.84477 15.4971 2.50686C15.1617 2.16895 14.6577 2 13.9851 2H2.01485C1.3487 2 0.846358 2.16766 0.507815 2.50299C0.169271 2.83832 0 3.33743 0 4.00032V12.3747C0 13.0376 0.169271 13.5367 0.507815 13.872C0.846358 14.2073 1.3487 14.375 2.01485 14.375ZM2.03229 13.5247C1.64603 13.5247 1.35165 13.4242 1.14917 13.2234C0.946685 13.0225 0.845443 12.7257 0.845443 12.333V4.04198C0.845443 3.64604 0.946685 3.34844 1.14917 3.14918C1.35165 2.94994 1.64603 2.85031 2.03229 2.85031H13.9676C14.3462 2.85031 14.6386 2.94994 14.8449 3.14918C15.0513 3.34844 15.1545 3.64604 15.1545 4.04198V12.333C15.1545 12.7257 15.0513 13.0225 14.8449 13.2234C14.6386 13.4242 14.3462 13.5247 13.9676 13.5247H2.03229Z" fill="#34E47B"/>
</svg>
